<svg width="25" height="25" viewBox="0 0 25 25" fill="none" xmlns="http://www.w3.org/2000/svg">
<path d="M24.5 17.3828C24.5 21.8418 21.8417 24.5 17.3827 24.5H15.925C15.2512 24.5 14.7 23.9487 14.7 23.275V16.2067C14.7 15.876 14.9695 15.5942 15.3002 15.5942L17.4562 15.5575C17.6277 15.5452 17.7747 15.4228 17.8115 15.2513L18.2402 12.9115C18.277 12.691 18.1055 12.4827 17.8727 12.4827L15.2635 12.5195C14.9205 12.5195 14.651 12.25 14.6387 11.9192L14.5897 8.918C14.5897 8.722 14.749 8.55051 14.9572 8.55051L17.8972 8.5015C18.1055 8.5015 18.2647 8.34226 18.2647 8.13401L18.2157 5.19399C18.2157 4.98574 18.0565 4.8265 17.8482 4.8265L14.5407 4.87551C12.5072 4.91226 10.8902 6.57825 10.927 8.61175L10.9882 11.9805C11.0005 12.3235 10.731 12.593 10.388 12.6053L8.918 12.6298C8.70975 12.6298 8.55051 12.789 8.55051 12.9972L8.58726 15.3248C8.58726 15.533 8.7465 15.6923 8.95475 15.6923L10.4247 15.6678C10.7677 15.6678 11.0372 15.9373 11.0495 16.268L11.1597 23.2505C11.172 23.9365 10.6207 24.5 9.93475 24.5H7.11725C2.65825 24.5 0 21.8418 0 17.3705V7.11725C0 2.65825 2.65825 0 7.11725 0H17.3827C21.8417 0 24.5 2.65825 24.5 7.11725V17.3828Z" fill="#CACACA"/>
</svg>
