<svg width="29" height="29" viewBox="0 0 29 29" fill="none" xmlns="http://www.w3.org/2000/svg">
<path d="M8.4609 4.70279V6.58299H26.3228V10.3049L24.237 16.9241H7.86934L5.51909 0H0V1.8802H3.88191L6.23216 18.8043H25.6158L28.203 10.5941V4.70279H8.4609Z" fill="white"/>
<path d="M9.45864 20.7024C8.46167 20.7035 7.50586 21.1001 6.80089 21.805C6.09593 22.51 5.69938 23.4658 5.69824 24.4628C5.69824 25.4601 6.09443 26.4166 6.79964 27.1218C7.50485 27.827 8.46132 28.2232 9.45864 28.2232C10.456 28.2232 11.4124 27.827 12.1176 27.1218C12.8229 26.4166 13.219 25.4601 13.219 24.4628C13.2179 23.4658 12.8214 22.51 12.1164 21.805C11.4114 21.1001 10.4556 20.7035 9.45864 20.7024ZM9.45864 26.343C9.08677 26.343 8.72326 26.2327 8.41406 26.0261C8.10486 25.8195 7.86387 25.5259 7.72156 25.1823C7.57926 24.8388 7.54202 24.4607 7.61457 24.096C7.68712 23.7313 7.86619 23.3962 8.12914 23.1333C8.39209 22.8703 8.72711 22.6913 9.09183 22.6187C9.45656 22.5462 9.8346 22.5834 10.1782 22.7257C10.5217 22.868 10.8154 23.109 11.022 23.4182C11.2286 23.7274 11.3388 24.0909 11.3388 24.4628C11.3383 24.9613 11.14 25.4392 10.7875 25.7916C10.435 26.1441 9.95712 26.3424 9.45864 26.343Z" fill="white"/>
<path d="M22.6203 20.7024C21.6233 20.7035 20.6675 21.1001 19.9625 21.805C19.2575 22.51 18.861 23.4658 18.8599 24.4628C18.8599 25.4601 19.256 26.4166 19.9613 27.1218C20.6665 27.827 21.6229 28.2232 22.6203 28.2232C23.6176 28.2232 24.5741 27.827 25.2793 27.1218C25.9845 26.4166 26.3807 25.4601 26.3807 24.4628C26.3795 23.4658 25.983 22.51 25.278 21.805C24.5731 21.1001 23.6172 20.7035 22.6203 20.7024ZM22.6203 26.343C22.2484 26.343 21.8849 26.2327 21.5757 26.0261C21.2665 25.8195 21.0255 25.5259 20.8832 25.1823C20.7409 24.8388 20.7036 24.4607 20.7762 24.096C20.8487 23.7313 21.0278 23.3962 21.2908 23.1333C21.5537 22.8703 21.8887 22.6913 22.2535 22.6187C22.6182 22.5462 22.9962 22.5834 23.3398 22.7257C23.6833 22.868 23.977 23.109 24.1836 23.4182C24.3902 23.7274 24.5005 24.0909 24.5005 24.4628C24.4999 24.9613 24.3016 25.4392 23.9491 25.7916C23.5966 26.1441 23.1187 26.3424 22.6203 26.343Z" fill="white"/>
</svg>
