<svg width="25" height="25" viewBox="0 0 25 25" fill="none" xmlns="http://www.w3.org/2000/svg">
<path fill-rule="evenodd" clip-rule="evenodd" d="M7.19959 0.0735C8.50627 0.0136086 8.92277 0 12.25 0C15.5779 0 15.9937 0.0142879 17.2997 0.0735C18.6043 0.132712 19.4952 0.340283 20.2744 0.643125C21.0917 0.950834 21.8321 1.43296 22.444 2.05596C23.0671 2.66783 23.5493 3.40824 23.8569 4.22557C24.1597 5.0048 24.3666 5.89566 24.4265 7.19959C24.4864 8.50627 24.5 8.92277 24.5 12.25C24.5 15.5772 24.4857 15.9937 24.4265 17.3005C24.3673 18.6043 24.1597 19.4952 23.8569 20.2744C23.5438 21.0796 23.1245 21.7635 22.444 22.444C21.8322 23.0671 21.0917 23.5493 20.2744 23.8569C19.4952 24.1597 18.6043 24.3666 17.3005 24.4265C15.9937 24.4864 15.5772 24.5 12.25 24.5C8.92277 24.5 8.50627 24.4857 7.19959 24.4265C5.89566 24.3673 5.0048 24.1597 4.22557 23.8569C3.42047 23.5438 2.73652 23.1245 2.05596 22.444C1.43285 21.8322 0.950689 21.0917 0.643125 20.2744C0.340283 19.4952 0.133391 18.6043 0.0735 17.3005C0.0136086 15.9937 0 15.5779 0 12.25C0 8.92209 0.0142879 8.50627 0.0735 7.20028C0.132712 5.89566 0.340283 5.0048 0.643125 4.22557C0.950834 3.4083 1.43296 2.66792 2.05596 2.05596C2.66782 1.43285 3.40823 0.950689 4.22557 0.643125C5.0048 0.340283 5.89566 0.133391 7.19959 0.0735ZM17.2003 2.2785C15.9086 2.21997 15.5207 2.20704 12.25 2.20704C8.97925 2.20704 8.59134 2.21997 7.29964 2.2785C6.10527 2.33295 5.4567 2.53234 5.02522 2.70045C4.45355 2.9223 4.04522 3.18772 3.61647 3.61647C3.18841 4.04522 2.9223 4.45355 2.70045 5.02522C2.53234 5.4567 2.33295 6.10527 2.2785 7.29964C2.21997 8.59134 2.20704 8.97925 2.20704 12.25C2.20704 15.5208 2.21997 15.9086 2.2785 17.2003C2.33295 18.3947 2.53234 19.0433 2.70045 19.4748C2.89669 20.0069 3.20971 20.4882 3.61647 20.8836C4.0117 21.2903 4.49309 21.6033 5.02522 21.7995C5.4567 21.9677 6.10527 22.167 7.29964 22.2215C8.59134 22.2801 8.97857 22.293 12.25 22.293C15.5214 22.293 15.9086 22.2801 17.2003 22.2215C18.3947 22.167 19.0433 21.9677 19.4748 21.7995C20.0465 21.5777 20.4548 21.3123 20.8836 20.8836C21.2903 20.4883 21.6033 20.0069 21.7995 19.4748C21.9677 19.0433 22.167 18.3947 22.2215 17.2003C22.2801 15.9086 22.293 15.5208 22.293 12.25C22.293 8.97925 22.2801 8.59134 22.2215 7.29964C22.167 6.10527 21.9677 5.4567 21.7995 5.02522C21.5777 4.45355 21.3123 4.04522 20.8836 3.61647C20.4548 3.18841 20.0465 2.9223 19.4748 2.70045C19.0433 2.53234 18.3947 2.33295 17.2003 2.2785ZM10.6859 16.0262C11.1818 16.2317 11.7132 16.3374 12.25 16.3374C13.3341 16.3374 14.3737 15.9067 15.1402 15.1402C15.9068 14.3737 16.3375 13.334 16.3375 12.25C16.3375 11.166 15.9068 10.1263 15.1402 9.35976C14.3737 8.59322 13.3341 8.16258 12.25 8.16258C11.7132 8.16258 11.1818 8.2683 10.6859 8.47371C10.1899 8.67912 9.73934 8.9802 9.35979 9.35976C8.98024 9.73931 8.67916 10.1899 8.47375 10.6858C8.26834 11.1817 8.16262 11.7132 8.16262 12.25C8.16262 12.7868 8.26834 13.3183 8.47375 13.8142C8.67916 14.3101 8.98024 14.7607 9.35979 15.1402C9.73934 15.5197 10.1899 15.8209 10.6859 16.0262ZM7.79774 7.79769C8.97856 6.61687 10.5801 5.95349 12.25 5.95349C13.92 5.95349 15.5215 6.61687 16.7023 7.79769C17.8831 8.97852 18.5465 10.5801 18.5465 12.25C18.5465 13.9199 17.8831 15.5214 16.7023 16.7023C15.5215 17.8831 13.92 18.5465 12.25 18.5465C10.5801 18.5465 8.97856 17.8831 7.79774 16.7023C6.61692 15.5214 5.95353 13.9199 5.95353 12.25C5.95353 10.5801 6.61692 8.97852 7.79774 7.79769ZM19.9427 6.8916C20.2217 6.61247 20.3785 6.2339 20.3785 5.83916C20.3785 5.44441 20.2217 5.06584 19.9427 4.78672C19.6635 4.5076 19.285 4.35079 18.8902 4.35079C18.4955 4.35079 18.1169 4.5076 17.8378 4.78672C17.5586 5.06584 17.4018 5.44441 17.4018 5.83916C17.4018 6.2339 17.5586 6.61247 17.8378 6.8916C18.1169 7.17073 18.4955 7.32754 18.8902 7.32754C19.285 7.32754 19.6635 7.17073 19.9427 6.8916Z" fill="#F9F9F9"/>
</svg>
