<svg width="89" height="87" viewBox="0 0 89 87" fill="none" xmlns="http://www.w3.org/2000/svg">
<path d="M19.5583 2.94043C22.3884 2.08222 25.3639 1.71828 28.3005 1.8623C30.2583 1.9575 32.1992 2.27615 34.0691 2.80859C34.4909 2.92965 34.8493 3.2128 35.0671 3.58887C35.2849 3.96531 35.344 4.40432 35.2302 4.81543C35.1164 5.22661 34.838 5.57812 34.4548 5.79883C34.0718 6.01911 33.6151 6.09049 33.1873 5.99121C31.5512 5.61421 29.8744 5.42607 28.2039 5.42969C25.6976 5.43408 23.206 5.87269 20.8806 6.70996C17.0007 8.09897 13.6036 10.6139 11.2283 13.8076C8.8421 16.9952 7.48629 20.8475 7.34937 24.7129C7.20008 28.5786 8.26742 32.4418 10.3376 35.6709C12.3982 38.9072 15.4517 41.4969 18.9646 43.0391C22.4734 44.5921 26.4268 45.0935 30.1638 44.4961C33.9037 43.9097 37.4119 42.2288 40.1238 39.7676C41.7537 38.294 43.1008 36.5472 44.0896 34.6396C44.7494 33.3681 45.2511 32.0256 45.5828 30.6504C45.8637 29.5171 46.5982 28.5502 47.6414 27.9678C48.6835 27.3853 49.9498 27.2345 51.1433 27.5439C52.3368 27.8535 53.3553 28.5968 53.9568 29.6055C54.5593 30.6146 54.6956 31.8073 54.3533 32.9248C53.7458 34.9427 52.8926 36.886 51.8201 38.7012C50.2124 41.4247 48.1083 43.8583 45.6433 45.8574C41.5395 49.1984 36.4248 51.2989 31.1628 51.8457C25.9018 52.4082 20.5158 51.4166 15.8894 49.0723C11.2545 46.7413 7.39851 43.0695 4.93237 38.6914C2.45165 34.3196 1.37045 29.2613 1.82886 24.3623C2.2717 19.461 4.24994 14.7393 7.40112 10.9658C10.5409 7.18223 14.8379 4.3622 19.5583 2.94043ZM57.8376 0.154297C63.0986 -0.408221 68.4847 0.583412 73.1111 2.92773C77.7459 5.25867 81.6019 8.93055 84.0681 13.3086C86.5488 17.6803 87.6309 22.7388 87.1726 27.6377C86.7298 32.539 84.7505 37.2607 81.5994 41.0342C78.4596 44.8178 74.1626 47.6378 69.4421 49.0596C66.6121 49.9178 63.6366 50.2827 60.7 50.1387C58.7422 50.0435 56.8013 49.7238 54.9314 49.1914C54.5097 49.0703 54.1512 48.7871 53.9333 48.4111C53.7157 48.0347 53.6564 47.5956 53.7703 47.1846C53.8841 46.7734 54.1625 46.4219 54.5457 46.2012C54.9287 45.9809 55.3854 45.9095 55.8132 46.0088C57.4494 46.3858 59.126 46.5739 60.7966 46.5703C63.3029 46.5659 65.7944 46.1273 68.1199 45.29C71.9998 43.901 75.3969 41.3862 77.7722 38.1924C80.1584 35.0048 81.5142 31.1525 81.6511 27.2871C81.8004 23.4215 80.7329 19.559 78.6628 16.3301C76.6023 13.0937 73.5488 10.5031 70.0359 8.96094C66.5271 7.40791 62.5737 6.90743 58.8367 7.50488C55.0967 8.09128 51.5886 9.77201 48.8767 12.2334C47.2469 13.7069 45.8996 15.4529 44.9109 17.3604C44.2511 18.6319 43.7494 19.9744 43.4177 21.3496C43.1368 22.4829 42.4031 23.4498 41.3601 24.0322C40.3179 24.6149 39.0509 24.7656 37.8572 24.4561C36.6637 24.1465 35.6452 23.4032 35.0437 22.3945C34.4412 21.3854 34.3049 20.1926 34.6472 19.0752C35.2547 17.0573 36.1079 15.114 37.1804 13.2988C38.788 10.5753 40.8923 8.14169 43.3572 6.14258C47.461 2.80161 52.5757 0.701071 57.8376 0.154297Z" fill="#FEF8F1"/>
<path d="M20.4178 80.356C20.4178 81.1587 20.2498 81.9147 19.9138 82.624C19.5778 83.3147 19.0271 83.9213 18.2618 84.444C17.5151 84.948 16.5351 85.3493 15.3218 85.648C14.1271 85.9467 12.6525 86.096 10.8978 86.096C9.90848 86.096 8.93781 86.0213 7.98581 85.872C7.05248 85.7227 6.15648 85.508 5.29781 85.228C4.45781 84.948 3.67381 84.612 2.94581 84.22C2.23648 83.8093 1.62048 83.3613 1.09781 82.876L2.49781 81.196C3.56181 82.1107 4.80315 82.8107 6.22181 83.296C7.64048 83.7627 9.19915 83.996 10.8978 83.996C12.7831 83.996 14.1178 83.7347 14.9018 83.212C15.6858 82.6893 16.0778 81.9707 16.0778 81.056C16.0778 80.3467 15.7698 79.7493 15.1538 79.264C14.5378 78.7787 13.4925 78.3027 12.0178 77.836L6.69781 76.156C4.94315 75.596 3.61781 74.8867 2.72181 74.028C1.82581 73.1507 1.37781 72.04 1.37781 70.696C1.37781 70.0053 1.53648 69.3427 1.85381 68.708C2.18981 68.0547 2.70315 67.4853 3.39381 67C4.08448 66.496 4.96181 66.104 6.02581 65.824C7.10848 65.5253 8.40581 65.376 9.91781 65.376C10.8325 65.376 11.7378 65.4507 12.6338 65.6C13.5485 65.7493 14.4165 65.964 15.2378 66.244C16.0778 66.524 16.8525 66.8693 17.5618 67.28C18.2898 67.672 18.9151 68.1107 19.4378 68.596L18.0378 70.276C16.9738 69.3613 15.7791 68.6707 14.4538 68.204C13.1285 67.7187 11.6165 67.476 9.91781 67.476C8.51781 67.476 7.46315 67.7187 6.75381 68.204C6.06315 68.6893 5.71781 69.2867 5.71781 69.996C5.71781 70.388 5.78315 70.7333 5.91381 71.032C6.04448 71.312 6.25915 71.5827 6.55781 71.844C6.87515 72.0867 7.28581 72.32 7.78981 72.544C8.29381 72.7493 8.91915 72.9733 9.66581 73.216L14.9578 74.896C16.6565 75.4373 17.9911 76.1467 18.9618 77.024C19.9325 77.9013 20.4178 79.012 20.4178 80.356ZM33.8578 67.336C32.9058 67.336 32.0098 67.504 31.1698 67.84C30.3485 68.176 29.6298 68.6893 29.0138 69.38C28.3978 70.0707 27.9031 70.948 27.5298 72.012C27.1751 73.0573 26.9978 74.2987 26.9978 75.736C26.9978 77.1733 27.1751 78.424 27.5298 79.488C27.9031 80.5333 28.3978 81.4013 29.0138 82.092C29.6298 82.7827 30.3485 83.296 31.1698 83.632C32.0098 83.968 32.9058 84.136 33.8578 84.136C34.8098 84.136 35.6965 83.968 36.5178 83.632C37.3578 83.296 38.0858 82.7827 38.7018 82.092C39.3178 81.4013 39.8031 80.5333 40.1578 79.488C40.5311 78.424 40.7178 77.1733 40.7178 75.736C40.7178 74.2987 40.5311 73.0573 40.1578 72.012C39.8031 70.948 39.3178 70.0707 38.7018 69.38C38.0858 68.6893 37.3578 68.176 36.5178 67.84C35.6965 67.504 34.8098 67.336 33.8578 67.336ZM33.8578 65.376C35.5378 65.376 37.0591 65.6 38.4218 66.048C39.8031 66.496 40.9791 67.1587 41.9498 68.036C42.9391 68.9133 43.7045 69.996 44.2458 71.284C44.7871 72.572 45.0578 74.056 45.0578 75.736C45.0578 77.416 44.7871 78.9 44.2458 80.188C43.7045 81.476 42.9391 82.5587 41.9498 83.436C40.9791 84.3133 39.8031 84.976 38.4218 85.424C37.0591 85.872 35.5378 86.096 33.8578 86.096C32.1778 86.096 30.6471 85.872 29.2658 85.424C27.8845 84.976 26.6991 84.3133 25.7098 83.436C24.7391 82.5587 23.9831 81.476 23.4418 80.188C22.9191 78.9 22.6578 77.416 22.6578 75.736C22.6578 74.056 22.9191 72.572 23.4418 71.284C23.9831 69.996 24.7391 68.9133 25.7098 68.036C26.6991 67.1587 27.8845 66.496 29.2658 66.048C30.6471 65.6 32.1778 65.376 33.8578 65.376ZM48.4288 65.936H57.9488C59.3861 65.936 60.6274 66.0667 61.6728 66.328C62.7368 66.5707 63.6141 66.9253 64.3048 67.392C64.9954 67.84 65.5088 68.3813 65.8448 69.016C66.1808 69.6507 66.3488 70.3507 66.3488 71.116C66.3488 72.1053 66.0688 72.964 65.5088 73.692C64.9488 74.42 64.1088 74.9613 62.9888 75.316C64.3888 75.596 65.4808 76.1467 66.2648 76.968C67.0674 77.7707 67.4688 78.8067 67.4688 80.076C67.4688 81.756 66.7688 83.0907 65.3688 84.08C63.9874 85.0507 61.7941 85.536 58.7888 85.536H48.4288V65.936ZM52.4888 76.576V83.436H58.7888C60.1888 83.436 61.2621 83.156 62.0088 82.596C62.7554 82.036 63.1288 81.196 63.1288 80.076C63.1288 78.8813 62.7554 78.004 62.0088 77.444C61.2621 76.8653 60.1888 76.576 58.7888 76.576H52.4888ZM57.9488 74.476C60.6554 74.476 62.0088 73.356 62.0088 71.116C62.0088 70.1267 61.6634 69.3707 60.9728 68.848C60.3008 68.3067 59.2928 68.036 57.9488 68.036H52.4888V74.476H57.9488ZM74.8833 68.036V74.476H85.1033V76.576H74.8833V83.436H87.9033V85.536H70.8233V65.936H87.9033V68.036H74.8833Z" fill="#FEF8F1"/>
</svg>
