<svg width="25" height="25" viewBox="0 0 25 25" fill="none" xmlns="http://www.w3.org/2000/svg">
<path fill-rule="evenodd" clip-rule="evenodd" d="M2.33333 12.2494C2.33404 10.1396 3.00768 8.08504 4.2563 6.38437C5.50493 4.6837 7.26347 3.42558 9.27626 2.79291C11.289 2.16025 13.4512 2.18601 15.4483 2.86645C17.4455 3.5469 19.1735 4.84657 20.3813 6.57651C21.589 8.30645 22.2134 10.3765 22.164 12.4857C22.1144 14.5949 21.3933 16.6333 20.1056 18.3047C18.818 19.9759 17.0308 21.193 15.0039 21.7789C12.9769 22.3648 10.816 22.2889 8.83517 21.5625C9.50823 19.7584 10.1612 17.947 10.794 16.1284C11.4637 16.6067 12.3282 16.9159 13.4167 16.9159C15.6742 16.9159 18.0542 15.4285 18.6433 12.4781C19.3865 8.77408 16.4197 5.24975 12.25 5.24975C10.4965 5.24975 8.77217 5.95439 7.48183 7.07199C6.18917 8.1931 5.25 9.8077 5.25 11.6661C5.25 12.5703 5.523 13.577 6.17283 14.2396C6.39305 14.4564 6.6896 14.578 6.9986 14.5782C7.30759 14.5784 7.60431 14.4572 7.82483 14.2408C8.03928 14.0265 8.16188 13.7372 8.16668 13.4341C8.17146 13.131 8.05807 12.8379 7.8505 12.6169C6.9335 11.4736 8.14217 9.58838 9.01017 8.83591C9.912 8.05428 11.1032 7.58297 12.25 7.58297C15.0815 7.58297 16.7813 9.89169 16.3567 12.0208C16.002 13.787 14.658 14.5826 13.4167 14.5826C12.4623 14.5826 11.949 14.1801 11.62 13.6586C11.7997 13.0941 11.9525 12.5808 12.0622 12.1631C12.2862 11.3033 12.4215 10.2662 11.648 9.62104C11.0728 9.14273 10.3938 9.24772 9.9785 9.45654C9.205 9.84153 8.75 10.7444 8.75 11.6661C8.75 12.1806 8.8305 12.9786 9.11983 13.8033C8.36698 16.0486 7.5743 18.2803 6.74217 20.4973C5.38491 19.5918 4.27231 18.3652 3.50318 16.9264C2.73405 15.4875 2.3322 13.8809 2.33333 12.2494ZM12.25 0C5.4845 0 0 5.48424 0 12.2494C0 19.0146 5.4845 24.4988 12.25 24.4988C19.0155 24.4988 24.5 19.0146 24.5 12.2494C24.5 5.48424 19.0155 0 12.25 0Z" fill="#CACACA"/>
</svg>
