<svg width="25" height="20" viewBox="0 0 25 20" fill="none" xmlns="http://www.w3.org/2000/svg">
<path d="M24.4533 2.37267C23.5522 2.76773 22.5875 3.03953 21.5707 3.16279C22.6081 2.54034 23.4013 1.55575 23.7795 0.382812C22.8064 0.949374 21.73 1.35975 20.5854 1.59173C19.6727 0.614796 18.3681 0 16.9203 0C14.1449 0 11.8955 2.24864 11.8955 5.0202C11.8955 5.41909 11.9437 5.8019 12.0272 6.16481C7.85225 5.96957 4.15122 3.96364 1.67595 0.933296C1.24108 1.67136 0.993781 2.52886 0.993781 3.46215C0.993781 5.20854 1.88267 6.73979 3.22634 7.64017C2.40483 7.61643 1.63155 7.38904 0.953969 7.01465V7.07514C0.953969 9.51059 2.68428 11.541 4.98116 12.0035C4.56236 12.1145 4.11523 12.1788 3.66122 12.1788C3.33889 12.1788 3.03111 12.1474 2.72409 12.0907C3.37028 14.0844 5.22003 15.5361 7.42503 15.5797C5.7108 16.9234 3.53795 17.7242 1.19667 17.7242C0.797781 17.7242 0.399656 17.7051 0 17.6568C2.23333 19.0809 4.86937 19.9139 7.71673 19.9139C16.9555 19.9139 22.0041 12.2615 22.0041 5.63423C22.0041 5.42292 22.0041 5.20778 21.988 4.99187C22.9733 4.28979 23.8262 3.40014 24.5 2.39181L24.4533 2.37267Z" fill="#CACACA"/>
</svg>
